<?xml version="1.0" ?><!DOCTYPE svg  PUBLIC '-//W3C//DTD SVG 1.1//EN'  'http://www.w3.org/Graphics/SVG/1.1/DTD/svg11.dtd'><svg height="512px" style="enable-background:new 0 0 512 512;" version="1.1" viewBox="0 0 512 512" width="512px" xml:space="preserve" xmlns="http://www.w3.org/2000/svg" xmlns:xlink="http://www.w3.org/1999/xlink"><g id="_x31_1_x2C__Illustrator_x2C__Adobe_x2C__Ai"><g><path d="M0,0v512h512V0H0z M489.471,489.475H22.525V22.529h466.945V489.475z"/><g><g id="XMLID_1211_"><g id="XMLID_1220_"><g><path d="M176.932,291.444l-18.483,61.291c-0.303,2.115-1.214,2.821-3.03,2.821h-30.906        c-2.12,0-2.722-1.061-2.12-3.522c16.363-53.897,43.932-143.719,63.32-204.66c0.911-3.521,1.821-7.045,2.423-19.374        c0-1.408,0.911-2.113,1.821-2.113h41.812c1.512,0,1.816,0.352,2.422,1.761c22.415,72.211,46.958,151.822,69.984,224.737        c0.606,2.111,0,3.172-1.816,3.172h-33.937c-1.512,0-2.119-0.706-2.722-2.117l-19.394-61.995H176.932z M238.128,256.924        c-6.06-23.602-20.906-71.154-26.961-95.813h-0.304c-4.547,23.248-16.966,63.054-26.056,95.813H238.128z" id="XMLID_130_"/></g></g><g id="XMLID_1212_"><g><path d="M334.89,139.208c0-13.032,8.633-21.838,20.239-21.838c12.205,0,19.649,8.806,19.649,21.838        c0,13.387-8.038,21.839-19.945,21.839C342.923,161.047,334.89,152.595,334.89,139.208z M336.971,187.114        c0-2.114,0.594-2.817,2.085-2.817h31.552c1.785,0,2.384,0.353,2.384,2.817v165.557c0,1.766-0.599,2.817-2.384,2.817H339.65        c-1.787,0-2.68-0.702-2.68-3.168V187.114z" id="XMLID_137_"/></g></g></g></g></g></g><g id="Layer_1"/></svg>