<?xml version="1.0" ?><svg id="Icons" style="enable-background:new 0 0 32 32;" version="1.1" viewBox="0 0 32 32" xml:space="preserve" xmlns="http://www.w3.org/2000/svg" xmlns:xlink="http://www.w3.org/1999/xlink"><style type="text/css">
	.st0{fill:none;stroke:#000000;stroke-width:2;stroke-linecap:round;stroke-linejoin:round;stroke-miterlimit:10;}
</style><g><path d="M7,25c-1.7,0-3-1.3-3-3V10c0-1.7,1.3-3,3-3s3,1.3,3,3v12C10,23.7,8.7,25,7,25z"/></g><g><path d="M25,25c-1.7,0-3-1.3-3-3V10c0-1.7,1.3-3,3-3s3,1.3,3,3v12C28,23.7,26.7,25,25,25z"/></g><g><path d="M23,17H9c-0.6,0-1-0.4-1-1s0.4-1,1-1h14c0.6,0,1,0.4,1,1S23.6,17,23,17z"/></g><g><path d="M2,10.2c-1.2,0.4-2,1.5-2,2.8v6c0,1.3,0.8,2.4,2,2.8V10.2z"/><path d="M30,10.2v11.6c1.2-0.4,2-1.5,2-2.8v-6C32,11.7,31.2,10.6,30,10.2z"/></g></svg>