<?xml version="1.0" ?><svg viewBox="0 0 64 64" xmlns="http://www.w3.org/2000/svg"><g id="a"/><g id="b"><path d="M43,36c0,2.7568-2.2432,5-5,5s-5-2.2432-5-5,2.2432-5,5-5,5,2.2432,5,5Zm13,0c0,.1807-.0024,.3594-.0073,.5371-.0254,.8208-.6855,1.4629-1.5034,1.4629h-.9758c-.6639,1.8527-1.7575,2.9322-2.66,3.5317,.5708,.0137,.9683-.0674,.9751-.0684,.188-.0425,.3833,.0288,.502,.1816,.1182,.1528,.1382,.3594,.0513,.5317-1.3882,2.7539-3.5244,3.5229-5.0522,3.689,.6045,.2363,1.0742,.2554,1.082,.2554,.1987,.0063,.376,.1294,.4497,.314s.0327,.395-.1064,.5366c-2.3442,2.3838-4.9326,2.3198-6.5635,1.9233,.479,.4429,.9004,.6377,.9077,.6411,.1758,.0796,.29,.2529,.2939,.4458,.0034,.1934-.104,.3711-.2769,.457-1.4937,.7451-2.9004,1-4.1265,1-1.2068,0-2.2245-.2476-2.9897-.5168v2.7981c0,.2593-.1982,.4756-.457,.498l-9,.7798c-.0142,.0015-.0288,.002-.043,.002h-.0005c-.059,0-.1178-.0116-.1744-.0327-.0208-.0078-.0379-.0226-.0576-.0331-.0308-.0164-.063-.029-.0908-.0523l-16.9976-14.3862c-.1118-.0952-.1768-.2349-.1768-.3818l-.002-6.1792c0-.1953,.1138-.3726,.291-.4541,.1787-.0806,.3857-.0518,.5342,.0742l16.8488,14.4363,7.5468-.3599-4.0899-3.5149-5.4214,.0361c-.1729,.0459-.3447-.0933-.4351-.2476-1.0402-1.7791-1.1847-4.7216-1.1991-5.9048h-1.1324c-1.3945,0-1.9141-.7549-1.936-1.4619-.0049-.1787-.0073-.3574-.0073-.5381,0-.1926,.0133-.3831,.0195-.5747l-7.5297-6.4717c-.2095-.1802-.2334-.4961-.0537-.7051,.1816-.2095,.4971-.2329,.7051-.0537l6.9616,5.9833c.5939-5.8253,3.996-11.0558,9.1917-13.9345,.9583-.5308,1.9648-.9679,3.0021-1.3138,.7653-1.1808,5.8906-8.7492,12.1366-9.798,2.0835-.3496,3.9673,.0884,5.605,1.3013,2.9419,2.1782,4.4336,6.3799,4.8164,9.3159,.5469,4.1907-.405,7.5704-.6675,8.395,1.1723,2.4135,1.813,5.0895,1.813,7.856Zm-3.5544,2h-2.9636c-.4136,0-.7979-.1641-1.0825-.4624-.2832-.2969-.4287-.6865-.4097-1.0972,.0063-.145,.0103-.292,.0103-.4404,0-2.7705-1.1069-5.3472-3.1167-7.2544-1.8652-1.7705-4.3096-2.7456-6.8833-2.7456-2.6719,0-5.1831,1.04-7.0713,2.9287-1.8887,1.8882-2.9287,4.3994-2.9287,7.0713,0,.1484,.0039,.2954,.0103,.4419,.019,.4097-.1265,.7993-.4097,1.0962-.2847,.2979-.6689,.4619-1.082,.4619h-2.4409c.0153,1.0474,.1371,3.5651,.9258,5.1504l1.0288-.0069,.3765-.976c.0991-.2573,.3872-.3848,.6465-.2861,.2573,.0991,.3857,.3887,.2861,.6465l-.2347,.6085,3.2054-.0215c.0991-.0107,.2378,.0425,.3291,.1206l5.1846,4.4561-.0028,.0033c.0068,.0059,.0157,.0081,.0223,.0143,.0986,.0942,.1548,.2251,.1548,.3618v1.7853c1.3953,.563,3.4532,.9661,5.8418,.0526-.4824-.3804-1.0723-.9766-1.4912-1.8374-.0962-.1978-.0513-.4346,.1094-.584,.1611-.1504,.4014-.1768,.5908-.0674,.1406,.0815,3.2524,1.8228,6.2612-.4995-.6069-.188-1.3794-.5522-2.0693-1.2568-.1558-.1587-.1865-.4014-.0771-.5952s.332-.2891,.5513-.2407c.1406,.0337,3.2617,.7266,5.3018-2.2949-.5225,.0176-1.2168-.063-1.9365-.3081-.2104-.0713-.3481-.2734-.3384-.4956s.1655-.4106,.3813-.4634c.0958-.0242,2.2147-.5969,3.3206-3.2656Zm-4.3835-16.9238c.2717,.1835,.5347,.3765,.7943,.573-.3588-2.2555-1.4794-5.0645-2.9329-5.4958-1.1668-.3459-2.9686,1.2064-3.9925,2.2795,2.1802,.486,4.2556,1.3754,6.1312,2.6434Zm5.8013-1.1978c-.2881-2.207-1.5435-6.5117-4.4204-8.6416-1.4116-1.0444-3.042-1.4229-4.8438-1.1187-4.8256,.8102-9.1037,6.0621-10.7844,8.3823,1.3664-.3262,2.7712-.5005,4.1853-.5005,.936,0,1.8628,.0751,2.7753,.2165,.7495-.8704,3.3379-3.6379,5.4323-3.0222,2.4006,.7126,3.6142,5.0871,3.7546,7.364,1.406,1.2512,2.5931,2.7031,3.5344,4.2968,.3316-1.4141,.7549-3.999,.3668-6.9767Zm-9.7954,32.7676c-.2124-.1792-.5273-.1514-.7046,.0591-.1782,.2109-.1519,.5264,.0591,.7046l2.8198,2.3818c.0938,.0796,.2085,.1182,.3223,.1182,.1426,0,.2837-.0601,.3823-.1772,.1782-.2109,.1519-.5264-.0591-.7046l-2.8198-2.3818Zm5.5581-.9541l-3.8247-1.1235c-.2676-.0801-.5425,.0742-.6206,.3384-.0781,.2651,.0737,.543,.3384,.6206l3.8247,1.1235c.0474,.0142,.0947,.0205,.1411,.0205,.2163,0,.4155-.1411,.4795-.3589,.0781-.2651-.0737-.543-.3384-.6206Z"/></g></svg>